<svg xmlns="http://www.w3.org/2000/svg" width="18.476" height="17.704" viewBox="0 0 18.476 17.704">
  <g id="Icon_feather-shopping-cart" data-name="Icon feather-shopping-cart" transform="translate(0.75 0.75)">
    <path id="Path_23935" data-name="Path 23935" d="M13.773,30.886A.886.886,0,1,1,12.886,30,.886.886,0,0,1,13.773,30.886Z" transform="translate(-6.679 -15.569)" fill="none" stroke="#414143" stroke-linecap="round" stroke-linejoin="round" stroke-width="1.5"/>
    <path id="Path_23936" data-name="Path 23936" d="M30.273,30.886A.886.886,0,1,1,29.386,30,.886.886,0,0,1,30.273,30.886Z" transform="translate(-15.07 -15.569)" fill="none" stroke="#414143" stroke-linecap="round" stroke-linejoin="round" stroke-width="1.5"/>
    <path id="Path_23937" data-name="Path 23937" d="M1.5,1.5H4.586l2.068,9.718A1.525,1.525,0,0,0,8.2,12.386h7.5a1.525,1.525,0,0,0,1.543-1.168l1.235-6.089H5.358" transform="translate(-1.5 -1.5)" fill="none" stroke="#414143" stroke-linecap="round" stroke-linejoin="round" stroke-width="1.5"/>
  </g>
</svg>
